<svg xmlns="http://www.w3.org/2000/svg" xmlns:xlink="http://www.w3.org/1999/xlink" xmlns:inkscape="http://www.inkscape.org/namespaces/inkscape" version="1.1" width="519.0694" height="234.38999" viewBox="0 0 519.0694 234.38999">
<defs>
<clipPath id="clip_0">
<path transform="matrix(1,0,0,-1,-21.4766,533.837)" d="M21.4766 299.447H540.546V533.837H21.4766Z" clip-rule="evenodd"/>
</clipPath>
<clipPath id="clip_1">
<path transform="matrix(.4999375,0,0,.50028768,-7.3033926,-2.2843018)" d="M0 0H1134V460.00004H0V0Z"/>
</clipPath>
</defs>
<g clip-path="url(#clip_0)">
<g clip-path="url(#clip_1)">
<path transform="matrix(.4999375,0,0,.50028768,-7.3033926,-2.2843018)" d="M0 0H1134V460H0Z" fill="#ffffff"/>
</g>
<path transform="matrix(.4999375,0,0,.50028768,-7.3033926,-2.2843018)" d="M0 0H1134V460H0Z" fill="#ffffff"/>
<path transform="matrix(.4999375,0,0,.50028768,-7.3033926,-2.2843018)" d="M147 405H1026V34H147Z" fill="#ffffff"/>
<path transform="matrix(.4999375,0,0,.50028768,-7.3033926,-2.2843018)" stroke-width="2.4" stroke-linecap="square" stroke-linejoin="round" fill="none" stroke="#262626" d="M147 405H1026"/>
<path transform="matrix(.4999375,0,0,.50028768,-7.3033926,-2.2843018)" stroke-width="2.4" stroke-linecap="square" stroke-linejoin="round" fill="none" stroke="#262626" d="M244.66667 405V413.79"/>
<path transform="matrix(.4999375,0,0,.50028768,-7.3033926,-2.2843018)" stroke-width="2.4" stroke-linecap="square" stroke-linejoin="round" fill="none" stroke="#262626" d="M342.33335 405V413.79"/>
<path transform="matrix(.4999375,0,0,.50028768,-7.3033926,-2.2843018)" stroke-width="2.4" stroke-linecap="square" stroke-linejoin="round" fill="none" stroke="#262626" d="M440 405V413.79"/>
<path transform="matrix(.4999375,0,0,.50028768,-7.3033926,-2.2843018)" stroke-width="2.4" stroke-linecap="square" stroke-linejoin="round" fill="none" stroke="#262626" d="M537.6667 405V413.79"/>
<path transform="matrix(.4999375,0,0,.50028768,-7.3033926,-2.2843018)" stroke-width="2.4" stroke-linecap="square" stroke-linejoin="round" fill="none" stroke="#262626" d="M635.3333 405V413.79"/>
<path transform="matrix(.4999375,0,0,.50028768,-7.3033926,-2.2843018)" stroke-width="2.4" stroke-linecap="square" stroke-linejoin="round" fill="none" stroke="#262626" d="M733 405V413.79"/>
<path transform="matrix(.4999375,0,0,.50028768,-7.3033926,-2.2843018)" stroke-width="2.4" stroke-linecap="square" stroke-linejoin="round" fill="none" stroke="#262626" d="M830.6667 405V413.79"/>
<path transform="matrix(.4999375,0,0,.50028768,-7.3033926,-2.2843018)" stroke-width="2.4" stroke-linecap="square" stroke-linejoin="round" fill="none" stroke="#262626" d="M928.3333 405V413.79"/>
<text fill="#262626" xml:space="preserve" transform="matrix(.4999375 0 0 .50028768 115.014659 209.65485)" font-size="29.223" font-family="Helvetica"><tspan y="30" x="-33 -16.75201 -.5040207 15.743969">2017</tspan></text>
<text fill="#262626" xml:space="preserve" transform="matrix(.4999375 0 0 .50028768 163.84189 209.65485)" font-size="29.223" font-family="Helvetica"><tspan y="30" x="-33 -16.75201 -.5040207 15.743969">2018</tspan></text>
<text fill="#262626" xml:space="preserve" transform="matrix(.4999375 0 0 .50028768 212.6691 209.65485)" font-size="29.223" font-family="Helvetica"><tspan y="30" x="-33 -16.75201 -.5040207 15.743969">2019</tspan></text>
<text fill="#262626" xml:space="preserve" transform="matrix(.4999375 0 0 .50028768 261.49638 209.65485)" font-size="29.223" font-family="Helvetica"><tspan y="30" x="-33 -16.75201 -.5040207 15.743969">2020</tspan></text>
<text fill="#262626" xml:space="preserve" transform="matrix(.4999375 0 0 .50028768 310.32359 209.65485)" font-size="29.223" font-family="Helvetica"><tspan y="30" x="-33 -16.75201 -.5040207 15.743969">2021</tspan></text>
<text fill="#262626" xml:space="preserve" transform="matrix(.4999375 0 0 .50028768 359.15083 209.65485)" font-size="29.223" font-family="Helvetica"><tspan y="30" x="-33 -16.75201 -.5040207 15.743969">2022</tspan></text>
<text fill="#262626" xml:space="preserve" transform="matrix(.4999375 0 0 .50028768 407.97807 209.65485)" font-size="29.223" font-family="Helvetica"><tspan y="30" x="-33 -16.75201 -.5040207 15.743969">2023</tspan></text>
<text fill="#262626" xml:space="preserve" transform="matrix(.4999375 0 0 .50028768 456.80528 209.65485)" font-size="29.223" font-family="Helvetica"><tspan y="30" x="-33 -16.75201 -.5040207 15.743969">2024</tspan></text>
<path transform="matrix(.4999375,0,0,.50028768,-7.3033926,-2.2843018)" stroke-width="2.4" stroke-linecap="square" stroke-linejoin="round" fill="none" stroke="#262626" d="M147 405V34"/>
<path transform="matrix(.4999375,0,0,.50028768,-7.3033926,-2.2843018)" stroke-width="2.4" stroke-linecap="square" stroke-linejoin="round" fill="none" stroke="#262626" d="M147 405H138.21334"/>
<path transform="matrix(.4999375,0,0,.50028768,-7.3033926,-2.2843018)" stroke-width="2.4" stroke-linecap="square" stroke-linejoin="round" fill="none" stroke="#262626" d="M147 330.8H138.21334"/>
<path transform="matrix(.4999375,0,0,.50028768,-7.3033926,-2.2843018)" stroke-width="2.4" stroke-linecap="square" stroke-linejoin="round" fill="none" stroke="#262626" d="M147 256.6H138.21334"/>
<path transform="matrix(.4999375,0,0,.50028768,-7.3033926,-2.2843018)" stroke-width="2.4" stroke-linecap="square" stroke-linejoin="round" fill="none" stroke="#262626" d="M147 182.4H138.21334"/>
<path transform="matrix(.4999375,0,0,.50028768,-7.3033926,-2.2843018)" stroke-width="2.4" stroke-linecap="square" stroke-linejoin="round" fill="none" stroke="#262626" d="M147 108.2H138.21334"/>
<path transform="matrix(.4999375,0,0,.50028768,-7.3033926,-2.2843018)" stroke-width="2.4" stroke-linecap="square" stroke-linejoin="round" fill="none" stroke="#262626" d="M147 34H138.21334"/>
<text fill="#262626" xml:space="preserve" transform="matrix(.4999375 0 0 .50028768 56.871385 200.33219)" font-size="29.223" font-family="Helvetica"><tspan y="11.5" x="-17">0</tspan></text>
<text fill="#262626" xml:space="preserve" transform="matrix(.4999375 0 0 .50028768 56.871385 163.21085)" font-size="29.223" font-family="Helvetica"><tspan y="11.5" x="-49 -32.75201 -16.50402">100</tspan></text>
<text fill="#262626" xml:space="preserve" transform="matrix(.4999375 0 0 .50028768 56.871385 126.08951)" font-size="29.223" font-family="Helvetica"><tspan y="11.5" x="-49 -32.75201 -16.50402">200</tspan></text>
<text fill="#262626" xml:space="preserve" transform="matrix(.4999375 0 0 .50028768 56.871385 88.96817)" font-size="29.223" font-family="Helvetica"><tspan y="11.5" x="-49 -32.75201 -16.50402">300</tspan></text>
<text fill="#262626" xml:space="preserve" transform="matrix(.4999375 0 0 .50028768 56.871385 51.846834)" font-size="29.223" font-family="Helvetica"><tspan y="11.5" x="-49 -32.75201 -16.50402">400</tspan></text>
<text fill="#262626" xml:space="preserve" transform="matrix(.4999375 0 0 .50028768 56.871385 14.725464)" font-size="29.223" font-family="Helvetica"><tspan y="11.5" x="-49 -32.75201 -16.50402">500</tspan></text>
<text fill="#262626" xml:space="preserve" transform="matrix(-.00000002125 -.50028768 .4999375 -.00000002125 29.37627 107.52875)" font-size="32.145" font-family="Helvetica"><tspan y="-8" x="-94 -72.55928 -47.55047 -26.10975 -17.173439 -6.4691536 20.307633 38.180253 47.11656 64.98918 82.8618">AGB (Mg/ha)</tspan></text>
<path transform="matrix(.4999375,0,0,.50028768,-7.3033926,-2.2843018)" d="M224.1128 358.3479 226.13957 361.53266 228.4167 364.71745 230.95613 367.90223 233.74593 371.08699 236.66687 374.27177 239.45667 377.45655 241.75765 380.64134 243.41484 383.82609 244.39246 387.01087 244.6309 390.19566 244.65474 393.3804 244.66667 396.5652 244.67859 393.3804 244.70244 390.19566 244.94087 387.01087 245.9185 383.82609 247.57569 380.64134 249.87667 377.45655 252.66646 374.27177 255.5874 371.08699 258.3772 367.90223 260.91664 364.71745 263.19377 361.53266 265.22056 358.3479 266.96119 355.16313 268.3799 351.97834 269.3933 348.79356 270.04905 345.6088 270.22789 342.424 270.0371 339.23924 269.51255 336.05448 268.6899 332.8697 267.55729 329.6849 266.13856 326.50013 264.50523 323.31538 262.6096 320.13059 260.5709 316.94584 258.41297 313.76106 256.25505 310.57627 254.18059 307.39149 252.24919 304.20674 250.5324 301.02195 249.05403 297.83717 247.87374 294.6524 246.95574 291.46763 246.27617 288.28285 245.78736 285.09809 245.42969 281.9133 245.19124 278.72853 245.0124 275.54377 244.9051 272.35899 244.83358 269.1742 244.78589 265.9894 244.75012 262.80467 244.72628 259.61988 244.71436 256.4351 244.70244 253.2503 244.6905 250.06555V246.88079L244.67859 243.696V240.51123 237.32645 234.14168 230.9569 227.77213L244.66667 224.58734 244.65474 227.77213V230.9569 234.14168 237.32645 240.51123 243.696L244.64282 246.88079V250.06555L244.6309 253.2503 244.61898 256.4351 244.60706 259.61988 244.5832 262.80467 244.54744 265.9894 244.49976 269.1742 244.42823 272.35899 244.32093 275.54377 244.14209 278.72853 243.90364 281.9133 243.54598 285.09809 243.05718 288.28285 242.37761 291.46763 241.4596 294.6524 240.2793 297.83717 238.80095 301.02195 237.08415 304.20674 235.15276 307.39149 233.0783 310.57627 230.92037 313.76106 228.76245 316.94584 226.72376 320.13059 224.82813 323.31538 223.19478 326.50013 221.77605 329.6849 220.64344 332.8697 219.8208 336.05448 219.29622 339.23924 219.10547 342.424 219.2843 345.6088 219.94002 348.79356 220.95342 351.97834 222.37215 355.16313Z" fill="#003f5c" fill-opacity=".501961"/>
<path transform="matrix(.4999375,0,0,.50028768,-7.3033926,-2.2843018)" stroke-width="2.4" stroke-linecap="square" stroke-miterlimit="10" stroke-linejoin="miter" fill="none" stroke="#000000" d="M244.66667 399.74998V396.5652L244.67859 393.3804 244.70244 390.19566 244.94087 387.01087 245.9185 383.82609 247.57569 380.64134 249.87667 377.45655 252.66646 374.27177 255.5874 371.08699 258.3772 367.90223 260.91664 364.71745 263.19377 361.53266 265.22056 358.3479 266.96119 355.16313 268.3799 351.97834 269.3933 348.79356 270.04905 345.6088 270.22789 342.424 270.0371 339.23924 269.51255 336.05448 268.6899 332.8697 267.55729 329.6849 266.13856 326.50013 264.50523 323.31538 262.6096 320.13059 260.5709 316.94584 258.41297 313.76106 256.25505 310.57627 254.18059 307.39149 252.24919 304.20674 250.5324 301.02195 249.05403 297.83717 247.87374 294.6524 246.95574 291.46763 246.27617 288.28285 245.78736 285.09809 245.42969 281.9133 245.19124 278.72853 245.0124 275.54377 244.9051 272.35899 244.83358 269.1742 244.78589 265.9894 244.75012 262.80467 244.72628 259.61988 244.71436 256.4351 244.70244 253.2503 244.6905 250.06555V246.88079L244.67859 243.696V240.51123 237.32645 234.14168 230.9569 227.77213L244.66667 224.58734V221.40258 218.21779 215.03304 211.84824 208.66347 205.47867 202.29393 199.10913 195.92436 192.7396 189.55481 186.37004 183.18527 180.0005 176.8157 173.63094 170.44617 167.2614 164.07662 160.89185 157.70706 154.52228 151.33754 148.15273 144.96797 141.7832 138.59844 135.41365 132.22887 129.0441 125.85932 122.674549 119.48975 116.304988 113.12021 109.93546 106.75065 103.565898 100.38113 97.19635 94.01158 90.82679 87.64201 84.457248 87.64201 90.82679 94.01158 97.19635 100.38113 103.565898 106.75065 109.93546 113.12021 116.304988 119.48975 122.674549 125.85932 129.0441 132.22887 135.41365 138.59844 141.7832 144.96797 148.15273 151.33754 154.52228 157.70706 160.89185 164.07662 167.2614 170.44617 173.63094 176.8157 180.0005 183.18527 186.37004 189.55481 192.7396 195.92436 199.10913 202.29393 205.47867 208.66347 211.84824 215.03304 218.21779 221.40258 224.58734L244.65474 227.77213V230.9569 234.14168 237.32645 240.51123 243.696L244.64282 246.88079V250.06555L244.6309 253.2503 244.61898 256.4351 244.60706 259.61988 244.5832 262.80467 244.54744 265.9894 244.49976 269.1742 244.42823 272.35899 244.32093 275.54377 244.14209 278.72853 243.90364 281.9133 243.54598 285.09809 243.05718 288.28285 242.37761 291.46763 241.4596 294.6524 240.2793 297.83717 238.80095 301.02195 237.08415 304.20674 235.15276 307.39149 233.0783 310.57627 230.92037 313.76106 228.76245 316.94584 226.72376 320.13059 224.82813 323.31538 223.19478 326.50013 221.77605 329.6849 220.64344 332.8697 219.8208 336.05448 219.29622 339.23924 219.10547 342.424 219.2843 345.6088 219.94002 348.79356 220.95342 351.97834 222.37215 355.16313 224.1128 358.3479 226.13957 361.53266 228.4167 364.71745 230.95613 367.90223 233.74593 371.08699 236.66687 374.27177 239.45667 377.45655 241.75765 380.64134 243.41484 383.82609 244.39246 387.01087 244.6309 390.19566 244.65474 393.3804 244.66667 396.5652V399.74998"/>
<path transform="matrix(.4999375,0,0,.50028768,-7.3033926,-2.2843018)" stroke-width="2" stroke-linecap="butt" stroke-linejoin="round" fill="none" stroke="#003f5c" d="M244.66667 398.09233V279.28993"/>
<path transform="matrix(.4999375,0,0,.50028768,-7.3033926,-2.2843018)" d="M229.33472 354.43693H259.99864V324.3781H229.33472Z" fill="#ffffff"/>
<path transform="matrix(.4999375,0,0,.50028768,-7.3033926,-2.2843018)" stroke-width="3" stroke-linecap="square" stroke-miterlimit="10" stroke-linejoin="miter" fill="none" stroke="#003f5c" d="M229.33472 354.43693H259.99864V324.3781H229.33472V354.43693"/>
<path transform="matrix(.4999375,0,0,.50028768,-7.3033926,-2.2843018)" stroke-width="4" stroke-linecap="butt" stroke-linejoin="round" fill="none" stroke="#003f5c" d="M229.33472 339.80137H259.99864"/>
<path transform="matrix(.4999375,0,0,.50028768,-7.3033926,-2.2843018)" d="M324.68849 362.64576 327.2875 366.01246 330.1846 369.37916 333.26054 372.74583 336.3007 376.11253 338.93553 379.47923 340.84306 382.8459 341.9518 386.2126 342.28565 389.57929 342.3214 392.94599 342.33335 396.31266 342.34526 392.94599 342.381 389.57929 342.71485 386.2126 343.8236 382.8459 345.73118 379.47923 348.36598 376.11253 351.40614 372.74583 354.48207 369.37916 357.37916 366.01246 359.97819 362.64576 362.31495 359.27906 364.31788 355.91239 365.91545 352.5457 367.10768 349.179 367.84684 345.81233 368.07337 342.44563 367.84684 339.07893 367.27458 335.71226 366.30888 332.34556 365.0332 328.97886 363.49525 325.61216 361.63539 322.24549 359.5609 318.87879 357.33146 315.5121 355.0424 312.14543 352.7891 308.77873 350.66697 305.41203 348.74748 302.04536 347.1022 298.67866 345.76695 295.31196 344.75355 291.94529 344.01438 288.57859 343.47789 285.21189 343.09635 281.84519 342.84599 278.47853 342.67909 275.11183 342.55986 271.74513 342.4883 268.37846 342.44065 265.01176 342.40489 261.64506 342.39295 258.27836 342.3691 254.91167 342.35719 251.54499V248.17829L342.34526 244.8116V241.44492 238.07823 234.71154 231.34484 227.97815L342.33335 224.61147 342.3214 227.97815V231.34484 234.71154 238.07823 241.44492 244.8116L342.30949 248.17829V251.54499L342.29759 254.91167 342.2737 258.27836 342.2618 261.64506 342.22605 265.01176 342.17835 268.37846 342.1068 271.74513 341.98759 275.11183 341.82069 278.47853 341.5703 281.84519 341.1888 285.21189 340.6523 288.57859 339.91313 291.94529 338.89976 295.31196 337.56446 298.67866 335.9192 302.04536 333.99974 305.41203 331.87757 308.77873 329.62428 312.14543 327.3352 315.5121 325.10575 318.87879 323.03129 322.24549 321.17143 325.61216 319.63346 328.97886 318.3578 332.34556 317.3921 335.71226 316.81983 339.07893 316.5933 342.44563 316.81983 345.81233 317.559 349.179 318.75123 352.5457 320.3488 355.91239 322.3517 359.27906Z" fill="#2c4875" fill-opacity=".501961"/>
<path transform="matrix(.4999375,0,0,.50028768,-7.3033926,-2.2843018)" stroke-width="2.4" stroke-linecap="square" stroke-miterlimit="10" stroke-linejoin="miter" fill="none" stroke="#000000" d="M342.33335 399.67936V396.31266L342.34526 392.94599 342.381 389.57929 342.71485 386.2126 343.8236 382.8459 345.73118 379.47923 348.36598 376.11253 351.40614 372.74583 354.48207 369.37916 357.37916 366.01246 359.97819 362.64576 362.31495 359.27906 364.31788 355.91239 365.91545 352.5457 367.10768 349.179 367.84684 345.81233 368.07337 342.44563 367.84684 339.07893 367.27458 335.71226 366.30888 332.34556 365.0332 328.97886 363.49525 325.61216 361.63539 322.24549 359.5609 318.87879 357.33146 315.5121 355.0424 312.14543 352.7891 308.77873 350.66697 305.41203 348.74748 302.04536 347.1022 298.67866 345.76695 295.31196 344.75355 291.94529 344.01438 288.57859 343.47789 285.21189 343.09635 281.84519 342.84599 278.47853 342.67909 275.11183 342.55986 271.74513 342.4883 268.37846 342.44065 265.01176 342.40489 261.64506 342.39295 258.27836 342.3691 254.91167 342.35719 251.54499V248.17829L342.34526 244.8116V241.44492 238.07823 234.71154 231.34484 227.97815L342.33335 224.61147V221.24478 217.87808 214.51139 211.14469 207.77802 204.41132 201.04463 197.67794 194.31125 190.94455 187.57788 184.21118 180.8445 177.4778 174.1111 170.74443 167.37772 164.01102 160.64435 157.27767 153.91097 150.54427 147.17758 143.81089 140.44422 137.07752 133.71083 130.34413 126.97744 123.61076 120.24407 116.87738 113.51068 110.14397 106.77732 103.41061 100.04391 96.677219 93.310527 89.943859 86.577159 83.210468 79.84377 76.4771 73.110408 69.74371 66.37702 69.74371 73.110408 76.4771 79.84377 83.210468 86.577159 89.943859 93.310527 96.677219 100.04391 103.41061 106.77732 110.14397 113.51068 116.87738 120.24407 123.61076 126.97744 130.34413 133.71083 137.07752 140.44422 143.81089 147.17758 150.54427 153.91097 157.27767 160.64435 164.01102 167.37772 170.74443 174.1111 177.4778 180.8445 184.21118 187.57788 190.94455 194.31125 197.67794 201.04463 204.41132 207.77802 211.14469 214.51139 217.87808 221.24478 224.61147L342.3214 227.97815V231.34484 234.71154 238.07823 241.44492 244.8116L342.30949 248.17829V251.54499L342.29759 254.91167 342.2737 258.27836 342.2618 261.64506 342.22605 265.01176 342.17835 268.37846 342.1068 271.74513 341.98759 275.11183 341.82069 278.47853 341.5703 281.84519 341.1888 285.21189 340.6523 288.57859 339.91313 291.94529 338.89976 295.31196 337.56446 298.67866 335.9192 302.04536 333.99974 305.41203 331.87757 308.77873 329.62428 312.14543 327.3352 315.5121 325.10575 318.87879 323.03129 322.24549 321.17143 325.61216 319.63346 328.97886 318.3578 332.34556 317.3921 335.71226 316.81983 339.07893 316.5933 342.44563 316.81983 345.81233 317.559 349.179 318.75123 352.5457 320.3488 355.91239 322.3517 359.27906 324.68849 362.64576 327.2875 366.01246 330.1846 369.37916 333.26054 372.74583 336.3007 376.11253 338.93553 379.47923 340.84306 382.8459 341.9518 386.2126 342.28565 389.57929 342.3214 392.94599 342.33335 396.31266V399.67936"/>
<path transform="matrix(.4999375,0,0,.50028768,-7.3033926,-2.2843018)" stroke-width="2" stroke-linecap="butt" stroke-linejoin="round" fill="none" stroke="#2c4875" d="M342.33335 398.02925V279.47377"/>
<path transform="matrix(.4999375,0,0,.50028768,-7.3033926,-2.2843018)" d="M326.89408 354.17485H357.77259V324.2944H326.89408Z" fill="#ffffff"/>
<path transform="matrix(.4999375,0,0,.50028768,-7.3033926,-2.2843018)" stroke-width="3" stroke-linecap="square" stroke-miterlimit="10" stroke-linejoin="miter" fill="none" stroke="#2c4875" d="M326.89408 354.17485H357.77259V324.2944H326.89408V354.17485"/>
<path transform="matrix(.4999375,0,0,.50028768,-7.3033926,-2.2843018)" stroke-width="4" stroke-linecap="butt" stroke-linejoin="round" fill="none" stroke="#2c4875" d="M326.89408 339.65998H357.77259"/>
<path transform="matrix(.4999375,0,0,.50028768,-7.3033926,-2.2843018)" d="M417.62205 355.5521 419.5892 358.95649 421.91404 362.36085 424.5846 365.76524 427.50553 369.1696 430.60533 372.57398 433.74085 375.97834 436.5187 379.38273 438.52165 382.78709 439.64234 386.19148 439.96424 389.59584 439.98808 393.0002 440 396.4046 440.01194 393.0002 440.03578 389.59584 440.35768 386.19148 441.47837 382.78709 443.4813 379.38273 446.25917 375.97834 449.39469 372.57398 452.49449 369.1696 455.4154 365.76524 458.08598 362.36085 460.4108 358.95649 462.37797 355.5521 463.9398 352.14775 465.03663 348.74336 465.6089 345.339 465.72813 341.9346 465.41813 338.53025 464.7028 335.12586 463.64173 331.7215 462.27067 328.3171 460.60157 324.91276 458.67018 321.50837 456.51225 318.104 454.25895 314.69963 451.95799 311.29524 449.72853 307.89088 447.666 304.48649 445.82997 301.08213 444.31584 297.67774 443.09977 294.27339 442.18177 290.869 441.5022 287.46464 441.0253 284.06025 440.67958 280.65589 440.45304 277.2515 440.29808 273.84715 440.20268 270.44276 440.14308 267.0384 440.09538 263.634 440.07154 260.22966 440.0477 256.82527 440.03578 253.42089 440.02384 250.01651V246.61214L440.01194 243.20777V239.80339 236.39902 232.99465 229.59027 226.1859L440 222.78151 439.98808 226.1859V229.59027 232.99465 236.39902 239.80339 243.20777L439.97618 246.61214V250.01651L439.96424 253.42089 439.9523 256.82527 439.92848 260.22966 439.90464 263.634 439.85694 267.0384 439.79734 270.44276 439.70195 273.84715 439.54698 277.2515 439.32044 280.65589 438.9747 284.06025 438.4978 287.46464 437.81825 290.869 436.90025 294.27339 435.68418 297.67774 434.17005 301.08213 432.334 304.48649 430.27149 307.89088 428.04203 311.29524 425.74107 314.69963 423.48777 318.104 421.32984 321.50837 419.39845 324.91276 417.72935 328.3171 416.35829 331.7215 415.2972 335.12586 414.58189 338.53025 414.27189 341.9346 414.3911 345.339 414.96339 348.74336 416.0602 352.14775Z" fill="#8a508f" fill-opacity=".501961"/>
<path transform="matrix(.4999375,0,0,.50028768,-7.3033926,-2.2843018)" stroke-width="2.4" stroke-linecap="square" stroke-miterlimit="10" stroke-linejoin="miter" fill="none" stroke="#000000" d="M440 399.80897V396.4046L440.01194 393.0002 440.03578 389.59584 440.35768 386.19148 441.47837 382.78709 443.4813 379.38273 446.25917 375.97834 449.39469 372.57398 452.49449 369.1696 455.4154 365.76524 458.08598 362.36085 460.4108 358.95649 462.37797 355.5521 463.9398 352.14775 465.03663 348.74336 465.6089 345.339 465.72813 341.9346 465.41813 338.53025 464.7028 335.12586 463.64173 331.7215 462.27067 328.3171 460.60157 324.91276 458.67018 321.50837 456.51225 318.104 454.25895 314.69963 451.95799 311.29524 449.72853 307.89088 447.666 304.48649 445.82997 301.08213 444.31584 297.67774 443.09977 294.27339 442.18177 290.869 441.5022 287.46464 441.0253 284.06025 440.67958 280.65589 440.45304 277.2515 440.29808 273.84715 440.20268 270.44276 440.14308 267.0384 440.09538 263.634 440.07154 260.22966 440.0477 256.82527 440.03578 253.42089 440.02384 250.01651V246.61214L440.01194 243.20777V239.80339 236.39902 232.99465 229.59027 226.1859L440 222.78151V219.37714 215.97278 212.5684 209.16403 205.75966 202.35529 198.95092 195.54654 192.14217 188.7378 185.33342 181.92905 178.52468 175.12029 171.71591 168.31156 164.90718 161.5028 158.09844 154.69405 151.28968 147.8853 144.48093 141.07656 137.67218 134.2678 130.86345 127.459079 124.0547 120.65033 117.24596 113.84156 110.43719 107.032817 103.62844 100.22407 96.819698 93.41532 90.01095 86.606578 83.202228 79.79785 76.393459 72.98908 69.58471 66.180339 62.77596 66.180339 69.58471 72.98908 76.393459 79.79785 83.202228 86.606578 90.01095 93.41532 96.819698 100.22407 103.62844 107.032817 110.43719 113.84156 117.24596 120.65033 124.0547 127.459079 130.86345 134.2678 137.67218 141.07656 144.48093 147.8853 151.28968 154.69405 158.09844 161.5028 164.90718 168.31156 171.71591 175.12029 178.52468 181.92905 185.33342 188.7378 192.14217 195.54654 198.95092 202.35529 205.75966 209.16403 212.5684 215.97278 219.37714 222.78151L439.98808 226.1859V229.59027 232.99465 236.39902 239.80339 243.20777L439.97618 246.61214V250.01651L439.96424 253.42089 439.9523 256.82527 439.92848 260.22966 439.90464 263.634 439.85694 267.0384 439.79734 270.44276 439.70195 273.84715 439.54698 277.2515 439.32044 280.65589 438.9747 284.06025 438.4978 287.46464 437.81825 290.869 436.90025 294.27339 435.68418 297.67774 434.17005 301.08213 432.334 304.48649 430.27149 307.89088 428.04203 311.29524 425.74107 314.69963 423.48777 318.104 421.32984 321.50837 419.39845 324.91276 417.72935 328.3171 416.35829 331.7215 415.2972 335.12586 414.58189 338.53025 414.27189 341.9346 414.3911 345.339 414.96339 348.74336 416.0602 352.14775 417.62205 355.5521 419.5892 358.95649 421.91404 362.36085 424.5846 365.76524 427.50553 369.1696 430.60533 372.57398 433.74085 375.97834 436.5187 379.38273 438.52165 382.78709 439.64234 386.19148 439.96424 389.59584 439.98808 393.0002 440 396.4046V399.80897"/>
<path transform="matrix(.4999375,0,0,.50028768,-7.3033926,-2.2843018)" stroke-width="2" stroke-linecap="butt" stroke-linejoin="round" fill="none" stroke="#8a508f" d="M440 398.15638V279.64903"/>
<path transform="matrix(.4999375,0,0,.50028768,-7.3033926,-2.2843018)" d="M424.56077 354.35499H455.43925V324.4726H424.56077Z" fill="#ffffff"/>
<path transform="matrix(.4999375,0,0,.50028768,-7.3033926,-2.2843018)" stroke-width="3" stroke-linecap="square" stroke-miterlimit="10" stroke-linejoin="miter" fill="none" stroke="#8a508f" d="M424.56077 354.35499H455.43925V324.4726H424.56077V354.35499"/>
<path transform="matrix(.4999375,0,0,.50028768,-7.3033926,-2.2843018)" stroke-width="4" stroke-linecap="butt" stroke-linejoin="round" fill="none" stroke="#8a508f" d="M424.56077 339.86997H455.43925"/>
<path transform="matrix(.4999375,0,0,.50028768,-7.3033926,-2.2843018)" d="M518.5792 358.773 520.8564 362.17594 523.3481 365.57887 526.0783 368.98179 528.93966 372.38475 531.80099 375.78767 534.28079 379.19059 536.1525 382.5935 537.27328 385.99644 537.6309 389.39936 537.6547 392.8023 537.6667 396.20524 537.6786 392.8023 537.70248 389.39936 538.0601 385.99644 539.1808 382.5935 541.05258 379.19059 543.5324 375.78767 546.39376 372.38475 549.25509 368.98179 551.9852 365.57887 554.477 362.17594 556.7541 358.773 558.7928 355.3701 560.53347 351.96714 561.7972 348.5642 562.5125 345.1613 562.7152 341.75837 562.4291 338.35545 561.7734 334.9525 560.8315 331.54957 559.6274 328.14665 558.18478 324.7437 556.5276 321.3408 554.6081 317.93788 552.60519 314.53495 550.4711 311.132 548.4205 307.7291 546.4653 304.32615 544.70077 300.92323 543.18667 297.5203 541.9229 294.11738 540.8857 290.71443 540.06307 287.3115 539.41928 283.90858 538.9423 280.50566 538.57278 277.10273 538.3105 273.6998 538.1197 270.29689 537.9886 266.89396 537.8932 263.491 537.82168 260.08808 537.774 256.68516 537.7382 253.28221 537.71438 249.87929 537.70248 246.47637 537.6905 243.07344 537.6786 239.67052V236.26757 232.86464L537.6667 229.46172 537.6547 232.86464V236.26757 239.67052L537.6428 243.07344 537.6309 246.47637 537.61898 249.87929 537.59518 253.28221 537.5594 256.68516 537.51168 260.08808 537.4401 263.491 537.3448 266.89396 537.2136 270.29689 537.0229 273.6998 536.76058 277.10273 536.391 280.50566 535.9141 283.90858 535.2703 287.3115 534.4477 290.71443 533.41049 294.11738 532.14669 297.5203 530.63259 300.92323 528.8681 304.32615 526.91287 307.7291 524.86227 311.132 522.72817 314.53495 520.7252 317.93788 518.8057 321.3408 517.14859 324.7437 515.706 328.14665 514.50186 331.54957 513.56 334.9525 512.90426 338.35545 512.6181 341.75837 512.8208 345.1613 513.53616 348.5642 514.79989 351.96714 516.5405 355.3701Z" fill="#bc5090" fill-opacity=".501961"/>
<path transform="matrix(.4999375,0,0,.50028768,-7.3033926,-2.2843018)" stroke-width="2.4" stroke-linecap="square" stroke-miterlimit="10" stroke-linejoin="miter" fill="none" stroke="#000000" d="M537.6667 399.60816V396.20524L537.6786 392.8023 537.70248 389.39936 538.0601 385.99644 539.1808 382.5935 541.05258 379.19059 543.5324 375.78767 546.39376 372.38475 549.25509 368.98179 551.9852 365.57887 554.477 362.17594 556.7541 358.773 558.7928 355.3701 560.53347 351.96714 561.7972 348.5642 562.5125 345.1613 562.7152 341.75837 562.4291 338.35545 561.7734 334.9525 560.8315 331.54957 559.6274 328.14665 558.18478 324.7437 556.5276 321.3408 554.6081 317.93788 552.60519 314.53495 550.4711 311.132 548.4205 307.7291 546.4653 304.32615 544.70077 300.92323 543.18667 297.5203 541.9229 294.11738 540.8857 290.71443 540.06307 287.3115 539.41928 283.90858 538.9423 280.50566 538.57278 277.10273 538.3105 273.6998 538.1197 270.29689 537.9886 266.89396 537.8932 263.491 537.82168 260.08808 537.774 256.68516 537.7382 253.28221 537.71438 249.87929 537.70248 246.47637 537.6905 243.07344 537.6786 239.67052V236.26757 232.86464L537.6667 229.46172V226.05878 222.65586 219.25293 215.85 212.44707 209.04413 205.6412 202.23828 198.83536 195.43244 192.0295 188.62657 185.22365 181.8207 178.41777 175.01485 171.61193 168.20899 164.80606 161.40314 158.0002 154.59728 151.19435 147.79141 144.3885 140.98557 137.58261 134.17972 130.77677 127.37384 123.97092 120.56799 117.16505 113.76212 110.3592 106.95625 103.55335 100.150409 96.747509 93.34456 89.94161 86.53871 83.135768 79.73286 76.32991 72.92696 69.52406 66.12112 62.718194 66.12112 69.52406 72.92696 76.32991 79.73286 83.135768 86.53871 89.94161 93.34456 96.747509 100.150409 103.55335 106.95625 110.3592 113.76212 117.16505 120.56799 123.97092 127.37384 130.77677 134.17972 137.58261 140.98557 144.3885 147.79141 151.19435 154.59728 158.0002 161.40314 164.80606 168.20899 171.61193 175.01485 178.41777 181.8207 185.22365 188.62657 192.0295 195.43244 198.83536 202.23828 205.6412 209.04413 212.44707 215.85 219.25293 222.65586 226.05878 229.46172L537.6547 232.86464V236.26757 239.67052L537.6428 243.07344 537.6309 246.47637 537.61898 249.87929 537.59518 253.28221 537.5594 256.68516 537.51168 260.08808 537.4401 263.491 537.3448 266.89396 537.2136 270.29689 537.0229 273.6998 536.76058 277.10273 536.391 280.50566 535.9141 283.90858 535.2703 287.3115 534.4477 290.71443 533.41049 294.11738 532.14669 297.5203 530.63259 300.92323 528.8681 304.32615 526.91287 307.7291 524.86227 311.132 522.72817 314.53495 520.7252 317.93788 518.8057 321.3408 517.14859 324.7437 515.706 328.14665 514.50186 331.54957 513.56 334.9525 512.90426 338.35545 512.6181 341.75837 512.8208 345.1613 513.53616 348.5642 514.79989 351.96714 516.5405 355.3701 518.5792 358.773 520.8564 362.17594 523.3481 365.57887 526.0783 368.98179 528.93966 372.38475 531.80099 375.78767 534.28079 379.19059 536.1525 382.5935 537.27328 385.99644 537.6309 389.39936 537.6547 392.8023 537.6667 396.20524V399.60816"/>
<path transform="matrix(.4999375,0,0,.50028768,-7.3033926,-2.2843018)" stroke-width="2" stroke-linecap="butt" stroke-linejoin="round" fill="none" stroke="#bc5090" d="M537.6667 397.89784V275.66139"/>
<path transform="matrix(.4999375,0,0,.50028768,-7.3033926,-2.2843018)" d="M522.63278 353.12336H552.70059V322.13859H522.63278Z" fill="#ffffff"/>
<path transform="matrix(.4999375,0,0,.50028768,-7.3033926,-2.2843018)" stroke-width="3" stroke-linecap="square" stroke-miterlimit="10" stroke-linejoin="miter" fill="none" stroke="#bc5090" d="M522.63278 353.12336H552.70059V322.13859H522.63278V353.12336"/>
<path transform="matrix(.4999375,0,0,.50028768,-7.3033926,-2.2843018)" stroke-width="4" stroke-linecap="butt" stroke-linejoin="round" fill="none" stroke="#bc5090" d="M522.63278 338.2536H552.70059"/>
<path transform="matrix(.4999375,0,0,.50028768,-7.3033926,-2.2843018)" d="M612.99118 354.94084 615.2206 358.0921 617.6527 361.24339 620.1564 364.39466 622.77926 367.54594 625.4856 370.69718 628.19198 373.84846 630.7194 376.99974 632.7581 380.151 634.20077 383.30229 635.0472 386.45356 635.29757 389.6048 635.3214 392.75608 635.3333 395.90736 635.3453 392.75608 635.3691 389.6048 635.61947 386.45356 636.46597 383.30229 637.9085 380.151 639.9472 376.99974 642.47476 373.84846 645.1811 370.69718 647.8874 367.54594 650.5103 364.39466 653.014 361.24339 655.4461 358.0921 657.67556 354.94084 659.6308 351.78959 661.16879 348.6383 662.15829 345.48704 662.5517 342.33576 662.34909 339.18449 661.59799 336.0332 660.42959 332.88194 658.92739 329.73069 657.24636 326.5794 655.3626 323.42814 653.27627 320.27687 651.11837 317.12559 648.9008 313.9743 646.74288 310.82307 644.69229 307.67179 642.85629 304.5205 641.2348 301.36924 639.85189 298.21797 638.755 295.06669 637.87277 291.91545 637.20516 288.76417 636.66867 285.61289 636.2871 282.4616 636.001 279.31034 635.7983 276.1591 635.6552 273.0078 635.5599 269.85655 635.48837 266.70527 635.4406 263.554 635.4168 260.4027 635.39297 257.25144 635.3691 254.10018 635.3572 250.94892V247.79763L635.3453 244.64636V241.4951 238.34381L635.3333 235.19255 635.3214 238.34381V241.4951 244.64636L635.3095 247.79763V250.94892L635.29757 254.10018 635.27377 257.25144 635.2499 260.4027 635.226 263.554 635.17837 266.70527 635.1068 269.85655 635.0114 273.0078 634.86837 276.1591 634.6657 279.31034 634.3796 282.4616 633.99807 285.61289 633.46157 288.76417 632.7939 291.91545 631.9117 295.06669 630.8148 298.21797 629.4318 301.36924 627.8104 304.5205 625.9744 307.67179 623.92379 310.82307 621.76589 313.9743 619.54837 317.12559 617.39047 320.27687 615.304 323.42814 613.42037 326.5794 611.7393 329.73069 610.2371 332.88194 609.0687 336.0332 608.3176 339.18449 608.1149 342.33576 608.50839 345.48704 609.4979 348.6383 611.0359 351.78959Z" fill="#ff6361" fill-opacity=".501961"/>
<path transform="matrix(.4999375,0,0,.50028768,-7.3033926,-2.2843018)" stroke-width="2.4" stroke-linecap="square" stroke-miterlimit="10" stroke-linejoin="miter" fill="none" stroke="#000000" d="M635.3333 399.05863V395.90736L635.3453 392.75608 635.3691 389.6048 635.61947 386.45356 636.46597 383.30229 637.9085 380.151 639.9472 376.99974 642.47476 373.84846 645.1811 370.69718 647.8874 367.54594 650.5103 364.39466 653.014 361.24339 655.4461 358.0921 657.67556 354.94084 659.6308 351.78959 661.16879 348.6383 662.15829 345.48704 662.5517 342.33576 662.34909 339.18449 661.59799 336.0332 660.42959 332.88194 658.92739 329.73069 657.24636 326.5794 655.3626 323.42814 653.27627 320.27687 651.11837 317.12559 648.9008 313.9743 646.74288 310.82307 644.69229 307.67179 642.85629 304.5205 641.2348 301.36924 639.85189 298.21797 638.755 295.06669 637.87277 291.91545 637.20516 288.76417 636.66867 285.61289 636.2871 282.4616 636.001 279.31034 635.7983 276.1591 635.6552 273.0078 635.5599 269.85655 635.48837 266.70527 635.4406 263.554 635.4168 260.4027 635.39297 257.25144 635.3691 254.10018 635.3572 250.94892V247.79763L635.3453 244.64636V241.4951 238.34381L635.3333 235.19255V232.04129 228.89002 225.73874 222.58747 219.4362 216.28491 213.13367 209.98239 206.83113 203.67986 200.5286 197.37732 194.22603 191.07477 187.92353 184.77223 181.62096 178.4697 175.31842 172.16713 169.01587 165.86463 162.71334 159.56208 156.4108 153.25954 150.10826 146.957 143.80573 140.65444 137.50316 134.3519 131.20064 128.04936 124.8981 121.74682 118.59554 115.44426 112.29302 109.14175 105.990489 102.8392 99.68792 96.536647 93.38538 90.23412 87.08285 90.23412 93.38538 96.536647 99.68792 102.8392 105.990489 109.14175 112.29302 115.44426 118.59554 121.74682 124.8981 128.04936 131.20064 134.3519 137.50316 140.65444 143.80573 146.957 150.10826 153.25954 156.4108 159.56208 162.71334 165.86463 169.01587 172.16713 175.31842 178.4697 181.62096 184.77223 187.92353 191.07477 194.22603 197.37732 200.5286 203.67986 206.83113 209.98239 213.13367 216.28491 219.4362 222.58747 225.73874 228.89002 232.04129 235.19255L635.3214 238.34381V241.4951 244.64636L635.3095 247.79763V250.94892L635.29757 254.10018 635.27377 257.25144 635.2499 260.4027 635.226 263.554 635.17837 266.70527 635.1068 269.85655 635.0114 273.0078 634.86837 276.1591 634.6657 279.31034 634.3796 282.4616 633.99807 285.61289 633.46157 288.76417 632.7939 291.91545 631.9117 295.06669 630.8148 298.21797 629.4318 301.36924 627.8104 304.5205 625.9744 307.67179 623.92379 310.82307 621.76589 313.9743 619.54837 317.12559 617.39047 320.27687 615.304 323.42814 613.42037 326.5794 611.7393 329.73069 610.2371 332.88194 609.0687 336.0332 608.3176 339.18449 608.1149 342.33576 608.50839 345.48704 609.4979 348.6383 611.0359 351.78959 612.99118 354.94084 615.2206 358.0921 617.6527 361.24339 620.1564 364.39466 622.77926 367.54594 625.4856 370.69718 628.19198 373.84846 630.7194 376.99974 632.7581 380.151 634.20077 383.30229 635.0472 386.45356 635.29757 389.6048 635.3214 392.75608 635.3333 395.90736V399.05863"/>
<path transform="matrix(.4999375,0,0,.50028768,-7.3033926,-2.2843018)" stroke-width="2" stroke-linecap="butt" stroke-linejoin="round" fill="none" stroke="#ff6361" d="M635.3333 396.20225V281.44728"/>
<path transform="matrix(.4999375,0,0,.50028768,-7.3033926,-2.2843018)" d="M618.99996 353.1739H651.66677V324.48326H618.99996Z" fill="#ffffff"/>
<path transform="matrix(.4999375,0,0,.50028768,-7.3033926,-2.2843018)" stroke-width="3" stroke-linecap="square" stroke-miterlimit="10" stroke-linejoin="miter" fill="none" stroke="#ff6361" d="M618.99996 353.1739H651.66677V324.48326H618.99996V353.1739"/>
<path transform="matrix(.4999375,0,0,.50028768,-7.3033926,-2.2843018)" stroke-width="4" stroke-linecap="butt" stroke-linejoin="round" fill="none" stroke="#ff6361" d="M618.99996 339.33158H651.66677"/>
<path transform="matrix(.4999375,0,0,.50028768,-7.3033926,-2.2843018)" d="M712.4342 355.47514 714.461 358.62403 716.6785 361.77293 719.0391 364.9218 721.57858 368.07069 724.26107 371.21958 726.96737 374.36848 729.3876 377.51737 731.1759 380.66627 732.2966 383.81513 732.84506 386.96403 732.97616 390.1129 732.9881 393.2618 733 396.4107 733.0119 393.2618 733.02389 390.1129 733.15499 386.96403 733.7034 383.81513 734.8241 380.66627 736.6124 377.51737 739.03268 374.36848 741.73898 371.21958 744.42147 368.07069 746.9609 364.9218 749.3215 361.77293 751.539 358.62403 753.5658 355.47514 755.3422 352.32624 756.7848 349.17738 757.78628 346.02848 758.33468 342.87959 758.5016 339.73069 758.2989 336.5818 757.78628 333.43293 756.93978 330.28404 755.8191 327.13514 754.4242 323.98625 752.75509 320.83735 750.8714 317.68849 748.8446 314.53959 746.7344 311.3907 744.62417 308.2418 742.58547 305.0929 740.6898 301.94404 739.0088 298.79515 737.5662 295.64625 736.4097 292.49736 735.4798 289.34846 734.7764 286.19956 734.25186 283.0507 733.8703 279.9018 733.5961 276.7529 733.4173 273.604 733.28616 270.4551 733.19076 267.3062 733.13119 264.15736 733.0954 261.00846 733.05966 257.85957 733.04769 254.71068 733.03579 251.56179 733.02389 248.4129 733.0119 245.264V242.11511 238.96622L733 235.81734 732.9881 238.96622V242.11511 245.264L732.97616 248.4129 732.96426 251.56179 732.95236 254.71068 732.94039 257.85957 732.9046 261.00846 732.86886 264.15736 732.80929 267.3062 732.71389 270.4551 732.5827 273.604 732.4039 276.7529 732.1297 279.9018 731.74819 283.0507 731.2236 286.19956 730.5202 289.34846 729.5903 292.49736 728.4338 295.64625 726.9912 298.79515 725.3102 301.94404 723.41458 305.0929 721.37588 308.2418 719.2656 311.3907 717.1554 314.53959 715.1286 317.68849 713.24496 320.83735 711.5758 323.98625 710.1809 327.13514 709.06027 330.28404 708.21377 333.43293 707.7011 336.5818 707.4984 339.73069 707.66537 342.87959 708.21377 346.02848 709.2152 349.17738 710.6578 352.32624Z" fill="#ff8531" fill-opacity=".501961"/>
<path transform="matrix(.4999375,0,0,.50028768,-7.3033926,-2.2843018)" stroke-width="2.4" stroke-linecap="square" stroke-miterlimit="10" stroke-linejoin="miter" fill="none" stroke="#000000" d="M733 399.5596V396.4107L733.0119 393.2618 733.02389 390.1129 733.15499 386.96403 733.7034 383.81513 734.8241 380.66627 736.6124 377.51737 739.03268 374.36848 741.73898 371.21958 744.42147 368.07069 746.9609 364.9218 749.3215 361.77293 751.539 358.62403 753.5658 355.47514 755.3422 352.32624 756.7848 349.17738 757.78628 346.02848 758.33468 342.87959 758.5016 339.73069 758.2989 336.5818 757.78628 333.43293 756.93978 330.28404 755.8191 327.13514 754.4242 323.98625 752.75509 320.83735 750.8714 317.68849 748.8446 314.53959 746.7344 311.3907 744.62417 308.2418 742.58547 305.0929 740.6898 301.94404 739.0088 298.79515 737.5662 295.64625 736.4097 292.49736 735.4798 289.34846 734.7764 286.19956 734.25186 283.0507 733.8703 279.9018 733.5961 276.7529 733.4173 273.604 733.28616 270.4551 733.19076 267.3062 733.13119 264.15736 733.0954 261.00846 733.05966 257.85957 733.04769 254.71068 733.03579 251.56179 733.02389 248.4129 733.0119 245.264V242.11511 238.96622L733 235.81734V232.66846 229.51955 226.37065 223.22176 220.07288 216.924 213.77509 210.6262 207.47733 204.32845 201.17955 198.03066 194.88176 191.73288 188.584 185.43509 182.28621 179.13733 175.98844 172.83956 169.69068 166.54177 163.39287 160.24399 157.09508 153.9462 150.79732 147.6484 144.49956 141.35065 138.20177 135.05287 131.90399 128.75508 125.60618 122.4573 119.308399 116.15954 113.010639 109.861759 106.71285 103.56397 100.41507 97.26621 94.11729 90.96843 87.81953 90.96843 94.11729 97.26621 100.41507 103.56397 106.71285 109.861759 113.010639 116.15954 119.308399 122.4573 125.60618 128.75508 131.90399 135.05287 138.20177 141.35065 144.49956 147.6484 150.79732 153.9462 157.09508 160.24399 163.39287 166.54177 169.69068 172.83956 175.98844 179.13733 182.28621 185.43509 188.584 191.73288 194.88176 198.03066 201.17955 204.32845 207.47733 210.6262 213.77509 216.924 220.07288 223.22176 226.37065 229.51955 232.66846 235.81734L732.9881 238.96622V242.11511 245.264L732.97616 248.4129 732.96426 251.56179 732.95236 254.71068 732.94039 257.85957 732.9046 261.00846 732.86886 264.15736 732.80929 267.3062 732.71389 270.4551 732.5827 273.604 732.4039 276.7529 732.1297 279.9018 731.74819 283.0507 731.2236 286.19956 730.5202 289.34846 729.5903 292.49736 728.4338 295.64625 726.9912 298.79515 725.3102 301.94404 723.41458 305.0929 721.37588 308.2418 719.2656 311.3907 717.1554 314.53959 715.1286 317.68849 713.24496 320.83735 711.5758 323.98625 710.1809 327.13514 709.06027 330.28404 708.21377 333.43293 707.7011 336.5818 707.4984 339.73069 707.66537 342.87959 708.21377 346.02848 709.2152 349.17738 710.6578 352.32624 712.4342 355.47514 714.461 358.62403 716.6785 361.77293 719.0391 364.9218 721.57858 368.07069 724.26107 371.21958 726.96737 374.36848 729.3876 377.51737 731.1759 380.66627 732.2966 383.81513 732.84506 386.96403 732.97616 390.1129 732.9881 393.2618 733 396.4107V399.5596"/>
<path transform="matrix(.4999375,0,0,.50028768,-7.3033926,-2.2843018)" stroke-width="2" stroke-linecap="butt" stroke-linejoin="round" fill="none" stroke="#ff8531" d="M733 397.1996V276.7063"/>
<path transform="matrix(.4999375,0,0,.50028768,-7.3033926,-2.2843018)" d="M717.7038 352.0249H748.2962V321.89744H717.7038Z" fill="#ffffff"/>
<path transform="matrix(.4999375,0,0,.50028768,-7.3033926,-2.2843018)" stroke-width="3" stroke-linecap="square" stroke-miterlimit="10" stroke-linejoin="miter" fill="none" stroke="#ff8531" d="M717.7038 352.0249H748.2962V321.89744H717.7038V352.0249"/>
<path transform="matrix(.4999375,0,0,.50028768,-7.3033926,-2.2843018)" stroke-width="4" stroke-linecap="butt" stroke-linejoin="round" fill="none" stroke="#ff8531" d="M717.7038 337.35169H748.2962"/>
<path transform="matrix(.4999375,0,0,.50028768,-7.3033926,-2.2843018)" d="M847.85848 358.59638 849.921 355.42243 851.7809 352.24848 853.31887 349.07453 854.51107 345.90058 855.2741 342.72663 855.6079 339.55268 855.57217 336.37873 855.15487 333.20478 854.4395 330.03083 853.41427 326.85685 852.13858 323.6829 850.5648 320.50895 848.7884 317.335 846.857 314.16105 844.8183 310.9871 842.80349 307.81318 840.8482 304.6392 839.0599 301.46525 837.4146 298.29133 836.0197 295.11735 834.8394 291.9434 833.8737 288.76945 833.1107 285.5955 832.4908 282.42155 832.0258 279.2476 831.6562 276.07365 831.382 272.8997 831.1793 269.72578 831.03628 266.5518 830.94088 263.37785 830.8574 260.2039 830.80978 257.02998 830.762 253.85599 830.7382 250.68206 830.71438 247.50809 830.70248 244.33414 830.6905 241.16019V237.98624L830.6786 234.81229V231.63834 228.46439L830.6667 225.29044 830.6547 228.46439V231.63834 234.81229L830.6428 237.98624V241.16019L830.6309 244.33414 830.61898 247.50809 830.59518 250.68206 830.5713 253.85599 830.5236 257.02998 830.4759 260.2039 830.39248 263.37785 830.29708 266.5518 830.154 269.72578 829.95138 272.8997 829.6771 276.07365 829.30758 279.2476 828.8426 282.42155 828.2226 285.5955 827.4596 288.76945 826.4939 291.9434 825.3136 295.11735 823.9187 298.29133 822.27346 301.46525 820.4851 304.6392 818.52987 307.81318 816.515 310.9871 814.4763 314.16105 812.5449 317.335 810.7685 320.50895 809.19479 323.6829 807.9191 326.85685 806.8938 330.03083 806.17849 333.20478 805.76119 336.37873 805.7254 339.55268 806.05929 342.72663 806.82229 345.90058 808.01449 349.07453 809.5524 352.24848 811.4123 355.42243 813.47488 358.59638 815.60897 361.77033 817.87417 364.94429 820.2705 368.11824 822.71456 371.29219 825.13479 374.46614 827.245 377.64009 828.87838 380.81404 829.96328 383.98799 830.5236 387.16194 830.6428 390.33589 830.6547 393.50984 830.6667 396.68379 830.6786 393.50984 830.6905 390.33589 830.80978 387.16194 831.37008 383.98799 832.455 380.81404 834.0883 377.64009 836.19857 374.46614 838.6188 371.29219 841.0628 368.11824 843.45919 364.94429 845.7244 361.77033Z" fill="#ffa600" fill-opacity=".501961"/>
<path transform="matrix(.4999375,0,0,.50028768,-7.3033926,-2.2843018)" stroke-width="2.4" stroke-linecap="square" stroke-miterlimit="10" stroke-linejoin="miter" fill="none" stroke="#000000" d="M830.6667 399.85774V396.68379L830.6786 393.50984 830.6905 390.33589 830.80978 387.16194 831.37008 383.98799 832.455 380.81404 834.0883 377.64009 836.19857 374.46614 838.6188 371.29219 841.0628 368.11824 843.45919 364.94429 845.7244 361.77033 847.85848 358.59638 849.921 355.42243 851.7809 352.24848 853.31887 349.07453 854.51107 345.90058 855.2741 342.72663 855.6079 339.55268 855.57217 336.37873 855.15487 333.20478 854.4395 330.03083 853.41427 326.85685 852.13858 323.6829 850.5648 320.50895 848.7884 317.335 846.857 314.16105 844.8183 310.9871 842.80349 307.81318 840.8482 304.6392 839.0599 301.46525 837.4146 298.29133 836.0197 295.11735 834.8394 291.9434 833.8737 288.76945 833.1107 285.5955 832.4908 282.42155 832.0258 279.2476 831.6562 276.07365 831.382 272.8997 831.1793 269.72578 831.03628 266.5518 830.94088 263.37785 830.8574 260.2039 830.80978 257.02998 830.762 253.85599 830.7382 250.68206 830.71438 247.50809 830.70248 244.33414 830.6905 241.16019V237.98624L830.6786 234.81229V231.63834 228.46439L830.6667 225.29044V222.11649 218.94254 215.76859 212.59464 209.42069 206.24674 203.07279 199.89884 196.7249 193.55092 190.37697 187.20304 184.02909 180.85514 177.68119 174.50724 171.33329 168.15935 164.98537 161.81143 158.63748 155.46353 152.28958 149.11562 145.94168 142.76772 139.5938 136.41982 133.24588 130.07193 126.89798 123.72401 120.55009 117.376117 114.20219 111.02822 107.85427 104.68032 101.50638 98.33243 95.158458 91.98451 88.81056 85.63661 88.81056 91.98451 95.158458 98.33243 101.50638 104.68032 107.85427 111.02822 114.20219 117.376117 120.55009 123.72401 126.89798 130.07193 133.24588 136.41982 139.5938 142.76772 145.94168 149.11562 152.28958 155.46353 158.63748 161.81143 164.98537 168.15935 171.33329 174.50724 177.68119 180.85514 184.02909 187.20304 190.37697 193.55092 196.7249 199.89884 203.07279 206.24674 209.42069 212.59464 215.76859 218.94254 222.11649 225.29044L830.6547 228.46439V231.63834 234.81229L830.6428 237.98624V241.16019L830.6309 244.33414 830.61898 247.50809 830.59518 250.68206 830.5713 253.85599 830.5236 257.02998 830.4759 260.2039 830.39248 263.37785 830.29708 266.5518 830.154 269.72578 829.95138 272.8997 829.6771 276.07365 829.30758 279.2476 828.8426 282.42155 828.2226 285.5955 827.4596 288.76945 826.4939 291.9434 825.3136 295.11735 823.9187 298.29133 822.27346 301.46525 820.4851 304.6392 818.52987 307.81318 816.515 310.9871 814.4763 314.16105 812.5449 317.335 810.7685 320.50895 809.19479 323.6829 807.9191 326.85685 806.8938 330.03083 806.17849 333.20478 805.76119 336.37873 805.7254 339.55268 806.05929 342.72663 806.82229 345.90058 808.01449 349.07453 809.5524 352.24848 811.4123 355.42243 813.47488 358.59638 815.60897 361.77033 817.87417 364.94429 820.2705 368.11824 822.71456 371.29219 825.13479 374.46614 827.245 377.64009 828.87838 380.81404 829.96328 383.98799 830.5236 387.16194 830.6428 390.33589 830.6547 393.50984 830.6667 396.68379V399.85774"/>
<path transform="matrix(.4999375,0,0,.50028768,-7.3033926,-2.2843018)" stroke-width="2" stroke-linecap="butt" stroke-linejoin="round" fill="none" stroke="#ffa600" d="M830.6667 397.18577V273.60154"/>
<path transform="matrix(.4999375,0,0,.50028768,-7.3033926,-2.2843018)" d="M815.7043 350.84538H845.629V319.9478H815.7043Z" fill="#ffffff"/>
<path transform="matrix(.4999375,0,0,.50028768,-7.3033926,-2.2843018)" stroke-width="3" stroke-linecap="square" stroke-miterlimit="10" stroke-linejoin="miter" fill="none" stroke="#ffa600" d="M815.7043 350.84538H845.629V319.9478H815.7043V350.84538"/>
<path transform="matrix(.4999375,0,0,.50028768,-7.3033926,-2.2843018)" stroke-width="4" stroke-linecap="butt" stroke-linejoin="round" fill="none" stroke="#ffa600" d="M815.7043 335.81858H845.629"/>
<path transform="matrix(.4999375,0,0,.50028768,-7.3033926,-2.2843018)" d="M945.8709 355.019 947.7069 351.81425 949.3164 348.6094 950.6398 345.4046 951.6651 342.1998 952.35659 338.995 952.7381 335.7902 952.7619 332.58537 952.44 329.38059 951.7724 326.17576 950.78286 322.97096 949.39987 319.76615 947.7308 316.56135 945.83517 313.35655 943.79647 310.15174 941.71 306.9469 939.63558 303.74214 937.6684 300.5373 935.86819 297.3325 934.3183 294.1277 932.97109 290.92289 931.88619 287.71809 931.0039 284.51325 930.31246 281.30845 929.77597 278.10365 929.3944 274.89884 929.0964 271.69404 928.8937 268.48924 928.7387 265.28443 928.6314 262.0796 928.5479 258.8748 928.48837 255.66999 928.4526 252.46518 928.4168 249.26038 928.39297 246.05558 928.3691 242.85077 928.3572 239.64597 928.3453 236.44115V233.23635 230.03154L928.3333 226.82674 928.3214 230.03154V233.23635 236.44115L928.3095 239.64597 928.29757 242.85077 928.27377 246.05558 928.2499 249.26038 928.2141 252.46518 928.17837 255.66999 928.1187 258.8748 928.0353 262.0796 927.928 265.28443 927.773 268.48924 927.5703 271.69404 927.2723 274.89884 926.89077 278.10365 926.35427 281.30845 925.6628 284.51325 924.7805 287.71809 923.6956 290.92289 922.3484 294.1277 920.7985 297.3325 918.9982 300.5373 917.03109 303.74214 914.9566 306.9469 912.87026 310.15174 910.83157 313.35655 908.9359 316.56135 907.2668 319.76615 905.88388 322.97096 904.8943 326.17576 904.2266 329.38059 903.9047 332.58537 903.9286 335.7902 904.3101 338.995 905.0016 342.1998 906.0269 345.4046 907.3503 348.6094 908.9598 351.81425 910.7958 355.019 912.7868 358.22386 914.8255 361.42866 916.94766 364.63346 919.15328 367.83827 921.3708 371.04307 923.5048 374.24787 925.3647 377.4527 926.77157 380.6575 927.7015 383.8623 928.2022 387.0671 928.3095 390.2719 928.3214 393.4767 928.3333 396.68153 928.3453 393.4767 928.3572 390.2719 928.4645 387.0671 928.9652 383.8623 929.89517 380.6575 931.30197 377.4527 933.1618 374.24787 935.2959 371.04307 937.5134 367.83827 939.71908 364.63346 941.8412 361.42866 943.8799 358.22386Z" fill="#ffd380" fill-opacity=".501961"/>
<path transform="matrix(.4999375,0,0,.50028768,-7.3033926,-2.2843018)" stroke-width="2.4" stroke-linecap="square" stroke-miterlimit="10" stroke-linejoin="miter" fill="none" stroke="#000000" d="M928.3333 399.88636V396.68153L928.3453 393.4767 928.3572 390.2719 928.4645 387.0671 928.9652 383.8623 929.89517 380.6575 931.30197 377.4527 933.1618 374.24787 935.2959 371.04307 937.5134 367.83827 939.71908 364.63346 941.8412 361.42866 943.8799 358.22386 945.8709 355.019 947.7069 351.81425 949.3164 348.6094 950.6398 345.4046 951.6651 342.1998 952.35659 338.995 952.7381 335.7902 952.7619 332.58537 952.44 329.38059 951.7724 326.17576 950.78286 322.97096 949.39987 319.76615 947.7308 316.56135 945.83517 313.35655 943.79647 310.15174 941.71 306.9469 939.63558 303.74214 937.6684 300.5373 935.86819 297.3325 934.3183 294.1277 932.97109 290.92289 931.88619 287.71809 931.0039 284.51325 930.31246 281.30845 929.77597 278.10365 929.3944 274.89884 929.0964 271.69404 928.8937 268.48924 928.7387 265.28443 928.6314 262.0796 928.5479 258.8748 928.48837 255.66999 928.4526 252.46518 928.4168 249.26038 928.39297 246.05558 928.3691 242.85077 928.3572 239.64597 928.3453 236.44115V233.23635 230.03154L928.3333 226.82674V223.62192 220.4171 217.21231 214.00748 210.80268 207.59789 204.39307 201.18827 197.98345 194.77864 191.57382 188.36904 185.16423 181.95941 178.75461 175.54979 172.34499 169.14017 165.93538 162.73058 159.52576 156.32096 153.11615 149.91132 146.70653 143.50173 140.2969 137.0921 133.88732 130.68248 127.47769 124.27286 121.06807 117.86326 114.65846 111.45363 108.24884 105.04401 101.83922 98.63441 95.429599 92.22481 89.02 85.815189 82.610378 85.815189 89.02 92.22481 95.429599 98.63441 101.83922 105.04401 108.24884 111.45363 114.65846 117.86326 121.06807 124.27286 127.47769 130.68248 133.88732 137.0921 140.2969 143.50173 146.70653 149.91132 153.11615 156.32096 159.52576 162.73058 165.93538 169.14017 172.34499 175.54979 178.75461 181.95941 185.16423 188.36904 191.57382 194.77864 197.98345 201.18827 204.39307 207.59789 210.80268 214.00748 217.21231 220.4171 223.62192 226.82674L928.3214 230.03154V233.23635 236.44115L928.3095 239.64597 928.29757 242.85077 928.27377 246.05558 928.2499 249.26038 928.2141 252.46518 928.17837 255.66999 928.1187 258.8748 928.0353 262.0796 927.928 265.28443 927.773 268.48924 927.5703 271.69404 927.2723 274.89884 926.89077 278.10365 926.35427 281.30845 925.6628 284.51325 924.7805 287.71809 923.6956 290.92289 922.3484 294.1277 920.7985 297.3325 918.9982 300.5373 917.03109 303.74214 914.9566 306.9469 912.87026 310.15174 910.83157 313.35655 908.9359 316.56135 907.2668 319.76615 905.88388 322.97096 904.8943 326.17576 904.2266 329.38059 903.9047 332.58537 903.9286 335.7902 904.3101 338.995 905.0016 342.1998 906.0269 345.4046 907.3503 348.6094 908.9598 351.81425 910.7958 355.019 912.7868 358.22386 914.8255 361.42866 916.94766 364.63346 919.15328 367.83827 921.3708 371.04307 923.5048 374.24787 925.3647 377.4527 926.77157 380.6575 927.7015 383.8623 928.2022 387.0671 928.3095 390.2719 928.3214 393.4767 928.3333 396.68153V399.88636"/>
<path transform="matrix(.4999375,0,0,.50028768,-7.3033926,-2.2843018)" stroke-width="2" stroke-linecap="butt" stroke-linejoin="round" fill="none" stroke="#ffd380" d="M928.3333 395.83036V270.28398"/>
<path transform="matrix(.4999375,0,0,.50028768,-7.3033926,-2.2843018)" d="M913.68099 348.75056H942.9857V317.36393H913.68099Z" fill="#ffffff"/>
<path transform="matrix(.4999375,0,0,.50028768,-7.3033926,-2.2843018)" stroke-width="3" stroke-linecap="square" stroke-miterlimit="10" stroke-linejoin="miter" fill="none" stroke="#ffd380" d="M913.68099 348.75056H942.9857V317.36393H913.68099V348.75056"/>
<path transform="matrix(.4999375,0,0,.50028768,-7.3033926,-2.2843018)" stroke-width="4" stroke-linecap="butt" stroke-linejoin="round" fill="none" stroke="#ffd380" d="M913.68099 333.21669H942.9857"/>
</g>
</svg>
